<?xml version="1.0" encoding="UTF-8" standalone="no"?>
<!DOCTYPE svg PUBLIC "-//W3C//DTD SVG 1.1//EN"
 "http://www.w3.org/Graphics/SVG/1.1/DTD/svg11.dtd">
<!-- Generated by graphviz version 14.1.5 (20260411.2331)
 -->
<!-- Title: MeetingReminderJoinArchitecture Pages: 1 -->
<svg width="1688pt" height="649pt"
 viewBox="0.00 0.00 1688.00 649.00" xmlns="http://www.w3.org/2000/svg" xmlns:xlink="http://www.w3.org/1999/xlink">
<g id="graph0" class="graph" transform="scale(1 1) rotate(0) translate(28.8 619.8)">
<title>MeetingReminderJoinArchitecture</title>
<polygon fill="white" stroke="none" points="-28.8,28.8 -28.8,-619.8 1659.24,-619.8 1659.24,28.8 -28.8,28.8"/>
<text xml:space="preserve" text-anchor="middle" x="815.22" y="-575.6" font-family="Helvetica,sans-Serif" font-size="12.00">Meeting Reminder Join Architecture</text>
<g id="clust1" class="cluster">
<title>cluster_external</title>
<path fill="#f1f5f9" stroke="#cbd5e1" d="M103.44,-393.75C103.44,-393.75 433.44,-393.75 433.44,-393.75 439.44,-393.75 445.44,-399.75 445.44,-405.75 445.44,-405.75 445.44,-454.5 445.44,-454.5 445.44,-460.5 439.44,-466.5 433.44,-466.5 433.44,-466.5 103.44,-466.5 103.44,-466.5 97.44,-466.5 91.44,-460.5 91.44,-454.5 91.44,-454.5 91.44,-405.75 91.44,-405.75 91.44,-399.75 97.44,-393.75 103.44,-393.75"/>
<text xml:space="preserve" text-anchor="middle" x="268.44" y="-451.1" font-family="Helvetica,sans-Serif" font-size="12.00">External Systems</text>
</g>
<g id="clust2" class="cluster">
<title>cluster_adapters</title>
<path fill="#eff6ff" stroke="#93c5fd" d="M29.44,-184.75C29.44,-184.75 674.44,-184.75 674.44,-184.75 680.44,-184.75 686.44,-190.75 686.44,-196.75 686.44,-196.75 686.44,-350 686.44,-350 686.44,-356 680.44,-362 674.44,-362 674.44,-362 29.44,-362 29.44,-362 23.44,-362 17.44,-356 17.44,-350 17.44,-350 17.44,-196.75 17.44,-196.75 17.44,-190.75 23.44,-184.75 29.44,-184.75"/>
<text xml:space="preserve" text-anchor="middle" x="351.94" y="-346.6" font-family="Helvetica,sans-Serif" font-size="12.00">Adapters</text>
</g>
<g id="clust3" class="cluster">
<title>cluster_ports</title>
<path fill="#fffbeb" stroke="#fbbf24" d="M706.44,-184.75C706.44,-184.75 1169.44,-184.75 1169.44,-184.75 1175.44,-184.75 1181.44,-190.75 1181.44,-196.75 1181.44,-196.75 1181.44,-245.5 1181.44,-245.5 1181.44,-251.5 1175.44,-257.5 1169.44,-257.5 1169.44,-257.5 706.44,-257.5 706.44,-257.5 700.44,-257.5 694.44,-251.5 694.44,-245.5 694.44,-245.5 694.44,-196.75 694.44,-196.75 694.44,-190.75 700.44,-184.75 706.44,-184.75"/>
<text xml:space="preserve" text-anchor="middle" x="937.94" y="-242.1" font-family="Helvetica,sans-Serif" font-size="12.00">Ports</text>
</g>
<g id="clust4" class="cluster">
<title>cluster_application</title>
<path fill="#f0fdf4" stroke="#86efac" d="M1201.44,-184.75C1201.44,-184.75 1499.44,-184.75 1499.44,-184.75 1505.44,-184.75 1511.44,-190.75 1511.44,-196.75 1511.44,-196.75 1511.44,-350 1511.44,-350 1511.44,-356 1505.44,-362 1499.44,-362 1499.44,-362 1201.44,-362 1201.44,-362 1195.44,-362 1189.44,-356 1189.44,-350 1189.44,-350 1189.44,-196.75 1189.44,-196.75 1189.44,-190.75 1195.44,-184.75 1201.44,-184.75"/>
<text xml:space="preserve" text-anchor="middle" x="1350.44" y="-346.6" font-family="Helvetica,sans-Serif" font-size="12.00">Application Use Cases</text>
</g>
<g id="clust5" class="cluster">
<title>cluster_domain</title>
<path fill="#fdf4ff" stroke="#e879f9" d="M1111.44,-8C1111.44,-8 1610.44,-8 1610.44,-8 1616.44,-8 1622.44,-14 1622.44,-20 1622.44,-20 1622.44,-149.75 1622.44,-149.75 1622.44,-155.75 1616.44,-161.75 1610.44,-161.75 1610.44,-161.75 1111.44,-161.75 1111.44,-161.75 1105.44,-161.75 1099.44,-155.75 1099.44,-149.75 1099.44,-149.75 1099.44,-20 1099.44,-20 1099.44,-14 1105.44,-8 1111.44,-8"/>
<text xml:space="preserve" text-anchor="middle" x="1360.94" y="-146.35" font-family="Helvetica,sans-Serif" font-size="12.00">Domain Core</text>
</g>
<g id="clust6" class="cluster">
<title>cluster_composition</title>
<path fill="#fff7ed" stroke="#fdba74" d="M773.44,-393.75C773.44,-393.75 887.44,-393.75 887.44,-393.75 893.44,-393.75 899.44,-399.75 899.44,-405.75 899.44,-405.75 899.44,-550.25 899.44,-550.25 899.44,-556.25 893.44,-562.25 887.44,-562.25 887.44,-562.25 773.44,-562.25 773.44,-562.25 767.44,-562.25 761.44,-556.25 761.44,-550.25 761.44,-550.25 761.44,-405.75 761.44,-405.75 761.44,-399.75 767.44,-393.75 773.44,-393.75"/>
<text xml:space="preserve" text-anchor="middle" x="830.44" y="-546.85" font-family="Helvetica,sans-Serif" font-size="12.00">Composition Root</text>
</g>
<!-- TB -->
<g id="node1" class="node">
<title>TB</title>
<path fill="#e2e8f0" stroke="#94a3b8" d="M300.19,-437.75C300.19,-437.75 222.69,-437.75 222.69,-437.75 216.69,-437.75 210.69,-431.75 210.69,-425.75 210.69,-425.75 210.69,-413.75 210.69,-413.75 210.69,-407.75 216.69,-401.75 222.69,-401.75 222.69,-401.75 300.19,-401.75 300.19,-401.75 306.19,-401.75 312.19,-407.75 312.19,-413.75 312.19,-413.75 312.19,-425.75 312.19,-425.75 312.19,-431.75 306.19,-437.75 300.19,-437.75"/>
<text xml:space="preserve" text-anchor="middle" x="261.44" y="-421.5" font-family="Helvetica,sans-Serif" font-size="10.00">Thunderbird</text>
<text xml:space="preserve" text-anchor="middle" x="261.44" y="-410.25" font-family="Helvetica,sans-Serif" font-size="10.00">MailExtension APIs</text>
</g>
<!-- CAL -->
<g id="node4" class="node">
<title>CAL</title>
<path fill="#dbeafe" stroke="#94a3b8" d="M666.07,-333.25C666.07,-333.25 536.82,-333.25 536.82,-333.25 530.82,-333.25 524.82,-327.25 524.82,-321.25 524.82,-321.25 524.82,-309.25 524.82,-309.25 524.82,-303.25 530.82,-297.25 536.82,-297.25 536.82,-297.25 666.07,-297.25 666.07,-297.25 672.07,-297.25 678.07,-303.25 678.07,-309.25 678.07,-309.25 678.07,-321.25 678.07,-321.25 678.07,-327.25 672.07,-333.25 666.07,-333.25"/>
<text xml:space="preserve" text-anchor="middle" x="601.44" y="-311.38" font-family="Helvetica,sans-Serif" font-size="10.00">ThunderbirdCalendarRepository</text>
</g>
<!-- TB&#45;&gt;CAL -->
<g id="edge1" class="edge">
<title>TB&#45;&gt;CAL</title>
<path fill="none" stroke="#64748b" d="M303.35,-401.25C310.95,-398.48 318.87,-395.84 326.44,-393.75 406.44,-371.69 431.63,-387.98 510.44,-362 528.21,-356.14 546.84,-347.31 562.58,-338.96"/>
<polygon fill="#64748b" stroke="#64748b" points="564.03,-342.16 571.14,-334.31 560.69,-336.01 564.03,-342.16"/>
</g>
<!-- HYBRID -->
<g id="node5" class="node">
<title>HYBRID</title>
<path fill="#dbeafe" stroke="#94a3b8" d="M313.69,-333.25C313.69,-333.25 209.19,-333.25 209.19,-333.25 203.19,-333.25 197.19,-327.25 197.19,-321.25 197.19,-321.25 197.19,-309.25 197.19,-309.25 197.19,-303.25 203.19,-297.25 209.19,-297.25 209.19,-297.25 313.69,-297.25 313.69,-297.25 319.69,-297.25 325.69,-303.25 325.69,-309.25 325.69,-309.25 325.69,-321.25 325.69,-321.25 325.69,-327.25 319.69,-333.25 313.69,-333.25"/>
<text xml:space="preserve" text-anchor="middle" x="261.44" y="-311.38" font-family="Helvetica,sans-Serif" font-size="10.00">HybridReminderPresenter</text>
</g>
<!-- TB&#45;&gt;HYBRID -->
<g id="edge2" class="edge">
<title>TB&#45;&gt;HYBRID</title>
<path fill="none" stroke="#64748b" d="M261.44,-401.36C261.44,-385.97 261.44,-363.21 261.44,-345.1"/>
<polygon fill="#64748b" stroke="#64748b" points="264.94,-345.24 261.44,-335.24 257.94,-345.24 264.94,-345.24"/>
</g>
<!-- BROWSER -->
<g id="node8" class="node">
<title>BROWSER</title>
<path fill="#dbeafe" stroke="#94a3b8" d="M155.82,-333.25C155.82,-333.25 37.07,-333.25 37.07,-333.25 31.07,-333.25 25.07,-327.25 25.07,-321.25 25.07,-321.25 25.07,-309.25 25.07,-309.25 25.07,-303.25 31.07,-297.25 37.07,-297.25 37.07,-297.25 155.82,-297.25 155.82,-297.25 161.82,-297.25 167.82,-303.25 167.82,-309.25 167.82,-309.25 167.82,-321.25 167.82,-321.25 167.82,-327.25 161.82,-333.25 155.82,-333.25"/>
<text xml:space="preserve" text-anchor="middle" x="96.44" y="-311.38" font-family="Helvetica,sans-Serif" font-size="10.00">ThunderbirdBrowserLauncher</text>
</g>
<!-- TB&#45;&gt;BROWSER -->
<g id="edge3" class="edge">
<title>TB&#45;&gt;BROWSER</title>
<path fill="none" stroke="#64748b" d="M233.45,-401.36C206.19,-384.43 164.56,-358.57 134.34,-339.79"/>
<polygon fill="#64748b" stroke="#64748b" points="136.2,-336.83 125.86,-334.52 132.5,-342.77 136.2,-336.83"/>
</g>
<!-- CLIP -->
<g id="node2" class="node">
<title>CLIP</title>
<path fill="#e2e8f0" stroke="#94a3b8" d="M425.57,-437.75C425.57,-437.75 353.32,-437.75 353.32,-437.75 347.32,-437.75 341.32,-431.75 341.32,-425.75 341.32,-425.75 341.32,-413.75 341.32,-413.75 341.32,-407.75 347.32,-401.75 353.32,-401.75 353.32,-401.75 425.57,-401.75 425.57,-401.75 431.57,-401.75 437.57,-407.75 437.57,-413.75 437.57,-413.75 437.57,-425.75 437.57,-425.75 437.57,-431.75 431.57,-437.75 425.57,-437.75"/>
<text xml:space="preserve" text-anchor="middle" x="389.44" y="-415.88" font-family="Helvetica,sans-Serif" font-size="10.00">Browser Clipboard</text>
</g>
<!-- CLIPBOARD -->
<g id="node9" class="node">
<title>CLIPBOARD</title>
<path fill="#dbeafe" stroke="#94a3b8" d="M484.07,-333.25C484.07,-333.25 366.82,-333.25 366.82,-333.25 360.82,-333.25 354.82,-327.25 354.82,-321.25 354.82,-321.25 354.82,-309.25 354.82,-309.25 354.82,-303.25 360.82,-297.25 366.82,-297.25 366.82,-297.25 484.07,-297.25 484.07,-297.25 490.07,-297.25 496.07,-303.25 496.07,-309.25 496.07,-309.25 496.07,-321.25 496.07,-321.25 496.07,-327.25 490.07,-333.25 484.07,-333.25"/>
<text xml:space="preserve" text-anchor="middle" x="425.44" y="-311.38" font-family="Helvetica,sans-Serif" font-size="10.00">ThunderbirdClipboardService</text>
</g>
<!-- CLIP&#45;&gt;CLIPBOARD -->
<g id="edge4" class="edge">
<title>CLIP&#45;&gt;CLIPBOARD</title>
<path fill="none" stroke="#64748b" d="M395.55,-401.36C401.01,-385.83 409.1,-362.78 415.49,-344.58"/>
<polygon fill="#64748b" stroke="#64748b" points="418.79,-345.75 418.8,-335.15 412.19,-343.43 418.79,-345.75"/>
</g>
<!-- USER -->
<g id="node3" class="node">
<title>USER</title>
<path fill="#e2e8f0" stroke="#94a3b8" d="M169.44,-437.75C169.44,-437.75 111.44,-437.75 111.44,-437.75 105.44,-437.75 99.44,-431.75 99.44,-425.75 99.44,-425.75 99.44,-413.75 99.44,-413.75 99.44,-407.75 105.44,-401.75 111.44,-401.75 111.44,-401.75 169.44,-401.75 169.44,-401.75 175.44,-401.75 181.44,-407.75 181.44,-413.75 181.44,-413.75 181.44,-425.75 181.44,-425.75 181.44,-431.75 175.44,-437.75 169.44,-437.75"/>
<text xml:space="preserve" text-anchor="middle" x="140.44" y="-415.88" font-family="Helvetica,sans-Serif" font-size="10.00">Reminder User</text>
</g>
<!-- COMPANION -->
<g id="node7" class="node">
<title>COMPANION</title>
<path fill="#dbeafe" stroke="#94a3b8" d="M163.19,-228.75C163.19,-228.75 37.69,-228.75 37.69,-228.75 31.69,-228.75 25.69,-222.75 25.69,-216.75 25.69,-216.75 25.69,-204.75 25.69,-204.75 25.69,-198.75 31.69,-192.75 37.69,-192.75 37.69,-192.75 163.19,-192.75 163.19,-192.75 169.19,-192.75 175.19,-198.75 175.19,-204.75 175.19,-204.75 175.19,-216.75 175.19,-216.75 175.19,-222.75 169.19,-228.75 163.19,-228.75"/>
<text xml:space="preserve" text-anchor="middle" x="100.44" y="-206.88" font-family="Helvetica,sans-Serif" font-size="10.00">CompanionReminderPresenter</text>
</g>
<!-- USER&#45;&gt;COMPANION -->
<g id="edge5" class="edge">
<title>USER&#45;&gt;COMPANION</title>
<path fill="none" stroke="#64748b" d="M99.03,-412.78C68.84,-406.02 29.93,-391.77 10.44,-362 -5.32,-337.92 -0.91,-323.69 10.44,-297.25 21.23,-272.12 43.44,-250.89 63.1,-235.88"/>
<polygon fill="#64748b" stroke="#64748b" points="64.97,-238.85 70.97,-230.11 60.83,-233.2 64.97,-238.85"/>
</g>
<!-- CALPORT -->
<g id="node10" class="node">
<title>CALPORT</title>
<polygon fill="#fef3c7" stroke="#94a3b8" points="1173.57,-228.75 1071.32,-228.75 1071.32,-224.75 1067.32,-224.75 1067.32,-220.75 1071.32,-220.75 1071.32,-200.75 1067.32,-200.75 1067.32,-196.75 1071.32,-196.75 1071.32,-192.75 1173.57,-192.75 1173.57,-228.75"/>
<polyline fill="none" stroke="#94a3b8" points="1071.32,-224.75 1075.32,-224.75 1075.32,-220.75 1071.32,-220.75"/>
<polyline fill="none" stroke="#94a3b8" points="1071.32,-200.75 1075.32,-200.75 1075.32,-196.75 1071.32,-196.75"/>
<text xml:space="preserve" text-anchor="middle" x="1122.44" y="-206.88" font-family="Helvetica,sans-Serif" font-size="10.00">CalendarRepository</text>
</g>
<!-- CAL&#45;&gt;CALPORT -->
<g id="edge8" class="edge">
<title>CAL&#45;&gt;CALPORT</title>
<path fill="none" stroke="#64748b" stroke-dasharray="5,2" d="M678.4,-309.14C755.24,-303.38 876.53,-292.51 980.44,-275.25 1015.09,-269.5 1025.37,-271.82 1057.44,-257.5 1069.92,-251.93 1082.47,-243.83 1093.16,-235.98"/>
<polygon fill="#64748b" stroke="#64748b" points="1095,-238.98 1100.84,-230.14 1090.76,-233.41 1095,-238.98"/>
<text xml:space="preserve" text-anchor="middle" x="1059.66" y="-266.7" font-family="Helvetica,sans-Serif" font-size="9.00">implements</text>
</g>
<!-- NATIVE -->
<g id="node6" class="node">
<title>NATIVE</title>
<path fill="#dbeafe" stroke="#94a3b8" d="M320.69,-228.75C320.69,-228.75 216.19,-228.75 216.19,-228.75 210.19,-228.75 204.19,-222.75 204.19,-216.75 204.19,-216.75 204.19,-204.75 204.19,-204.75 204.19,-198.75 210.19,-192.75 216.19,-192.75 216.19,-192.75 320.69,-192.75 320.69,-192.75 326.69,-192.75 332.69,-198.75 332.69,-204.75 332.69,-204.75 332.69,-216.75 332.69,-216.75 332.69,-222.75 326.69,-228.75 320.69,-228.75"/>
<text xml:space="preserve" text-anchor="middle" x="268.44" y="-206.88" font-family="Helvetica,sans-Serif" font-size="10.00">NativeReminderPresenter</text>
</g>
<!-- HYBRID&#45;&gt;NATIVE -->
<g id="edge6" class="edge">
<title>HYBRID&#45;&gt;NATIVE</title>
<path fill="none" stroke="#64748b" d="M262.63,-296.86C263.68,-281.47 265.24,-258.71 266.47,-240.6"/>
<polygon fill="#64748b" stroke="#64748b" points="269.96,-240.95 267.15,-230.73 262.97,-240.47 269.96,-240.95"/>
</g>
<!-- HYBRID&#45;&gt;COMPANION -->
<g id="edge7" class="edge">
<title>HYBRID&#45;&gt;COMPANION</title>
<path fill="none" stroke="#64748b" d="M234.13,-296.86C207.53,-279.93 166.91,-254.07 137.42,-235.29"/>
<polygon fill="#64748b" stroke="#64748b" points="139.48,-232.45 129.17,-230.04 135.72,-238.36 139.48,-232.45"/>
</g>
<!-- PRESENTPORT -->
<g id="node11" class="node">
<title>PRESENTPORT</title>
<polygon fill="#fef3c7" stroke="#94a3b8" points="923.44,-228.75 823.44,-228.75 823.44,-224.75 819.44,-224.75 819.44,-220.75 823.44,-220.75 823.44,-200.75 819.44,-200.75 819.44,-196.75 823.44,-196.75 823.44,-192.75 923.44,-192.75 923.44,-228.75"/>
<polyline fill="none" stroke="#94a3b8" points="823.44,-224.75 827.44,-224.75 827.44,-220.75 823.44,-220.75"/>
<polyline fill="none" stroke="#94a3b8" points="823.44,-200.75 827.44,-200.75 827.44,-196.75 823.44,-196.75"/>
<text xml:space="preserve" text-anchor="middle" x="873.44" y="-206.88" font-family="Helvetica,sans-Serif" font-size="10.00">ReminderPresenter</text>
</g>
<!-- HYBRID&#45;&gt;PRESENTPORT -->
<g id="edge9" class="edge">
<title>HYBRID&#45;&gt;PRESENTPORT</title>
<path fill="none" stroke="#64748b" stroke-dasharray="5,2" d="M325.99,-299.66C330.87,-298.77 335.73,-297.96 340.44,-297.25 546.9,-266.4 612.28,-328.89 808.44,-257.5 821.68,-252.68 834.7,-244.43 845.57,-236.25"/>
<polygon fill="#64748b" stroke="#64748b" points="847.66,-239.06 853.33,-230.11 843.31,-233.57 847.66,-239.06"/>
<text xml:space="preserve" text-anchor="middle" x="798.11" y="-266.7" font-family="Helvetica,sans-Serif" font-size="9.00">implements</text>
</g>
<!-- BROWSERPORT -->
<g id="node12" class="node">
<title>BROWSERPORT</title>
<polygon fill="#fef3c7" stroke="#94a3b8" points="794.32,-228.75 702.57,-228.75 702.57,-224.75 698.57,-224.75 698.57,-220.75 702.57,-220.75 702.57,-200.75 698.57,-200.75 698.57,-196.75 702.57,-196.75 702.57,-192.75 794.32,-192.75 794.32,-228.75"/>
<polyline fill="none" stroke="#94a3b8" points="702.57,-224.75 706.57,-224.75 706.57,-220.75 702.57,-220.75"/>
<polyline fill="none" stroke="#94a3b8" points="702.57,-200.75 706.57,-200.75 706.57,-196.75 702.57,-196.75"/>
<text xml:space="preserve" text-anchor="middle" x="748.44" y="-206.88" font-family="Helvetica,sans-Serif" font-size="10.00">BrowserLauncher</text>
</g>
<!-- BROWSER&#45;&gt;BROWSERPORT -->
<g id="edge10" class="edge">
<title>BROWSER&#45;&gt;BROWSERPORT</title>
<path fill="none" stroke="#64748b" stroke-dasharray="5,2" d="M168.13,-299.42C172.97,-298.63 177.77,-297.89 182.44,-297.25 295.28,-281.76 587.91,-300.35 693.44,-257.5 704.84,-252.87 715.64,-244.98 724.61,-237.05"/>
<polygon fill="#64748b" stroke="#64748b" points="726.95,-239.66 731.82,-230.25 722.14,-234.56 726.95,-239.66"/>
<text xml:space="preserve" text-anchor="middle" x="688.34" y="-266.7" font-family="Helvetica,sans-Serif" font-size="9.00">implements</text>
</g>
<!-- CLIPPORT -->
<g id="node13" class="node">
<title>CLIPPORT</title>
<polygon fill="#fef3c7" stroke="#94a3b8" points="1042.57,-228.75 952.32,-228.75 952.32,-224.75 948.32,-224.75 948.32,-220.75 952.32,-220.75 952.32,-200.75 948.32,-200.75 948.32,-196.75 952.32,-196.75 952.32,-192.75 1042.57,-192.75 1042.57,-228.75"/>
<polyline fill="none" stroke="#94a3b8" points="952.32,-224.75 956.32,-224.75 956.32,-220.75 952.32,-220.75"/>
<polyline fill="none" stroke="#94a3b8" points="952.32,-200.75 956.32,-200.75 956.32,-196.75 952.32,-196.75"/>
<text xml:space="preserve" text-anchor="middle" x="997.44" y="-206.88" font-family="Helvetica,sans-Serif" font-size="10.00">ClipboardService</text>
</g>
<!-- CLIPBOARD&#45;&gt;CLIPPORT -->
<g id="edge11" class="edge">
<title>CLIPBOARD&#45;&gt;CLIPPORT</title>
<path fill="none" stroke="#64748b" stroke-dasharray="5,2" d="M496.31,-299.5C501.08,-298.68 505.83,-297.92 510.44,-297.25 699.48,-269.65 760.75,-327.67 938.44,-257.5 950.5,-252.74 962.15,-244.71 971.86,-236.7"/>
<polygon fill="#64748b" stroke="#64748b" points="974.16,-239.34 979.39,-230.13 969.55,-234.07 974.16,-239.34"/>
<text xml:space="preserve" text-anchor="middle" x="931.29" y="-266.7" font-family="Helvetica,sans-Serif" font-size="9.00">implements</text>
</g>
<!-- HANDLE -->
<g id="node14" class="node">
<title>HANDLE</title>
<path fill="#dcfce7" stroke="#94a3b8" d="M1491.82,-333.25C1491.82,-333.25 1427.07,-333.25 1427.07,-333.25 1421.07,-333.25 1415.07,-327.25 1415.07,-321.25 1415.07,-321.25 1415.07,-309.25 1415.07,-309.25 1415.07,-303.25 1421.07,-297.25 1427.07,-297.25 1427.07,-297.25 1491.82,-297.25 1491.82,-297.25 1497.82,-297.25 1503.82,-303.25 1503.82,-309.25 1503.82,-309.25 1503.82,-321.25 1503.82,-321.25 1503.82,-327.25 1497.82,-333.25 1491.82,-333.25"/>
<text xml:space="preserve" text-anchor="middle" x="1459.44" y="-311.38" font-family="Helvetica,sans-Serif" font-size="10.00">HandleReminder</text>
</g>
<!-- HANDLE&#45;&gt;CALPORT -->
<g id="edge12" class="edge">
<title>HANDLE&#45;&gt;CALPORT</title>
<path fill="none" stroke="#64748b" d="M1414.79,-300.87C1409.96,-299.58 1405.11,-298.35 1400.44,-297.25 1304.56,-274.75 1272.53,-297.29 1182.44,-257.5 1170.64,-252.29 1159.03,-244.31 1149.22,-236.47"/>
<polygon fill="#64748b" stroke="#64748b" points="1151.49,-233.8 1141.58,-230.06 1146.99,-239.17 1151.49,-233.8"/>
</g>
<!-- HANDLE&#45;&gt;PRESENTPORT -->
<g id="edge15" class="edge">
<title>HANDLE&#45;&gt;PRESENTPORT</title>
<path fill="none" stroke="#64748b" d="M1414.87,-300.5C1410.03,-299.28 1405.15,-298.16 1400.44,-297.25 1383.45,-293.96 1107.7,-266.83 1090.44,-265.5 1056.5,-262.88 969.58,-268.74 937.44,-257.5 924.18,-252.86 911.24,-244.56 900.51,-236.3"/>
<polygon fill="#64748b" stroke="#64748b" points="902.84,-233.68 892.87,-230.09 898.42,-239.11 902.84,-233.68"/>
</g>
<!-- DETECT -->
<g id="node15" class="node">
<title>DETECT</title>
<path fill="#dcfce7" stroke="#94a3b8" d="M1340.32,-228.75C1340.32,-228.75 1266.57,-228.75 1266.57,-228.75 1260.57,-228.75 1254.57,-222.75 1254.57,-216.75 1254.57,-216.75 1254.57,-204.75 1254.57,-204.75 1254.57,-198.75 1260.57,-192.75 1266.57,-192.75 1266.57,-192.75 1340.32,-192.75 1340.32,-192.75 1346.32,-192.75 1352.32,-198.75 1352.32,-204.75 1352.32,-204.75 1352.32,-216.75 1352.32,-216.75 1352.32,-222.75 1346.32,-228.75 1340.32,-228.75"/>
<text xml:space="preserve" text-anchor="middle" x="1303.44" y="-206.88" font-family="Helvetica,sans-Serif" font-size="10.00">DetectMeetingLink</text>
</g>
<!-- HANDLE&#45;&gt;DETECT -->
<g id="edge13" class="edge">
<title>HANDLE&#45;&gt;DETECT</title>
<path fill="none" stroke="#64748b" d="M1430.12,-296.86C1411.89,-285.87 1388.07,-271.21 1367.44,-257.5 1357.1,-250.62 1346.03,-242.86 1336.05,-235.71"/>
<polygon fill="#64748b" stroke="#64748b" points="1338.27,-232.99 1328.11,-229.97 1334.17,-238.66 1338.27,-232.99"/>
</g>
<!-- RESOLVE -->
<g id="node16" class="node">
<title>RESOLVE</title>
<path fill="#dcfce7" stroke="#94a3b8" d="M1491.32,-228.75C1491.32,-228.75 1393.57,-228.75 1393.57,-228.75 1387.57,-228.75 1381.57,-222.75 1381.57,-216.75 1381.57,-216.75 1381.57,-204.75 1381.57,-204.75 1381.57,-198.75 1387.57,-192.75 1393.57,-192.75 1393.57,-192.75 1491.32,-192.75 1491.32,-192.75 1497.32,-192.75 1503.32,-198.75 1503.32,-204.75 1503.32,-204.75 1503.32,-216.75 1503.32,-216.75 1503.32,-222.75 1497.32,-228.75 1491.32,-228.75"/>
<text xml:space="preserve" text-anchor="middle" x="1442.44" y="-206.88" font-family="Helvetica,sans-Serif" font-size="10.00">ResolveReminderAction</text>
</g>
<!-- HANDLE&#45;&gt;RESOLVE -->
<g id="edge14" class="edge">
<title>HANDLE&#45;&gt;RESOLVE</title>
<path fill="none" stroke="#64748b" d="M1456.56,-296.86C1454,-281.4 1450.2,-258.5 1447.19,-240.34"/>
<polygon fill="#64748b" stroke="#64748b" points="1450.68,-240.01 1445.59,-230.72 1443.77,-241.15 1450.68,-240.01"/>
</g>
<!-- EVENT -->
<g id="node19" class="node">
<title>EVENT</title>
<path fill="#fae8ff" stroke="#94a3b8" d="M1201.82,-133C1201.82,-133 1119.07,-133 1119.07,-133 1113.07,-133 1107.07,-127 1107.07,-121 1107.07,-121 1107.07,-109 1107.07,-109 1107.07,-103 1113.07,-97 1119.07,-97 1119.07,-97 1201.82,-97 1201.82,-97 1207.82,-97 1213.82,-103 1213.82,-109 1213.82,-109 1213.82,-121 1213.82,-121 1213.82,-127 1207.82,-133 1201.82,-133"/>
<text xml:space="preserve" text-anchor="middle" x="1160.44" y="-111.12" font-family="Helvetica,sans-Serif" font-size="10.00">CalendarEventFields</text>
</g>
<!-- DETECT&#45;&gt;EVENT -->
<g id="edge20" class="edge">
<title>DETECT&#45;&gt;EVENT</title>
<path fill="none" stroke="#64748b" d="M1275.92,-192.35C1261.69,-183.3 1244.08,-172.01 1228.44,-161.75 1217.61,-154.64 1205.87,-146.79 1195.25,-139.64"/>
<polygon fill="#64748b" stroke="#64748b" points="1197.36,-136.84 1187.12,-134.15 1193.44,-142.64 1197.36,-136.84"/>
</g>
<!-- REGISTRY -->
<g id="node22" class="node">
<title>REGISTRY</title>
<path fill="#fae8ff" stroke="#94a3b8" d="M1602.07,-133C1602.07,-133 1502.82,-133 1502.82,-133 1496.82,-133 1490.82,-127 1490.82,-121 1490.82,-121 1490.82,-109 1490.82,-109 1490.82,-103 1496.82,-97 1502.82,-97 1502.82,-97 1602.07,-97 1602.07,-97 1608.07,-97 1614.07,-103 1614.07,-109 1614.07,-109 1614.07,-121 1614.07,-121 1614.07,-127 1608.07,-133 1602.07,-133"/>
<text xml:space="preserve" text-anchor="middle" x="1552.44" y="-111.12" font-family="Helvetica,sans-Serif" font-size="10.00">MeetingProviderRegistry</text>
</g>
<!-- DETECT&#45;&gt;REGISTRY -->
<g id="edge18" class="edge">
<title>DETECT&#45;&gt;REGISTRY</title>
<path fill="none" stroke="#64748b" d="M1345.1,-192.34C1352.47,-189.59 1360.13,-186.93 1367.44,-184.75 1414.88,-170.58 1430.37,-179.88 1476.44,-161.75 1491.06,-156 1506.1,-147.57 1518.89,-139.5"/>
<polygon fill="#64748b" stroke="#64748b" points="1520.45,-142.67 1526.93,-134.29 1516.64,-136.8 1520.45,-142.67"/>
</g>
<!-- RESULT -->
<g id="node23" class="node">
<title>RESULT</title>
<path fill="#fae8ff" stroke="#94a3b8" d="M1351.94,-133C1351.94,-133 1254.94,-133 1254.94,-133 1248.94,-133 1242.94,-127 1242.94,-121 1242.94,-121 1242.94,-109 1242.94,-109 1242.94,-103 1248.94,-97 1254.94,-97 1254.94,-97 1351.94,-97 1351.94,-97 1357.94,-97 1363.94,-103 1363.94,-109 1363.94,-109 1363.94,-121 1363.94,-121 1363.94,-127 1357.94,-133 1351.94,-133"/>
<text xml:space="preserve" text-anchor="middle" x="1303.44" y="-111.12" font-family="Helvetica,sans-Serif" font-size="10.00">MeetingDetectionResult</text>
</g>
<!-- DETECT&#45;&gt;RESULT -->
<g id="edge21" class="edge">
<title>DETECT&#45;&gt;RESULT</title>
<path fill="none" stroke="#64748b" d="M1303.44,-192.55C1303.44,-179.16 1303.44,-160.27 1303.44,-144.61"/>
<polygon fill="#64748b" stroke="#64748b" points="1306.94,-144.92 1303.44,-134.92 1299.94,-144.92 1306.94,-144.92"/>
</g>
<!-- LINK -->
<g id="node20" class="node">
<title>LINK</title>
<path fill="#fae8ff" stroke="#94a3b8" d="M1449.69,-133C1449.69,-133 1405.19,-133 1405.19,-133 1399.19,-133 1393.19,-127 1393.19,-121 1393.19,-121 1393.19,-109 1393.19,-109 1393.19,-103 1399.19,-97 1405.19,-97 1405.19,-97 1449.69,-97 1449.69,-97 1455.69,-97 1461.69,-103 1461.69,-109 1461.69,-109 1461.69,-121 1461.69,-121 1461.69,-127 1455.69,-133 1449.69,-133"/>
<text xml:space="preserve" text-anchor="middle" x="1427.44" y="-111.12" font-family="Helvetica,sans-Serif" font-size="10.00">MeetingLink</text>
</g>
<!-- RESOLVE&#45;&gt;LINK -->
<g id="edge22" class="edge">
<title>RESOLVE&#45;&gt;LINK</title>
<path fill="none" stroke="#64748b" d="M1439.69,-192.55C1437.55,-179.16 1434.53,-160.27 1432.02,-144.61"/>
<polygon fill="#64748b" stroke="#64748b" points="1435.5,-144.22 1430.47,-134.9 1428.59,-145.33 1435.5,-144.22"/>
</g>
<!-- JOIN -->
<g id="node17" class="node">
<title>JOIN</title>
<path fill="#dcfce7" stroke="#94a3b8" d="M1253.69,-333.25C1253.69,-333.25 1209.19,-333.25 1209.19,-333.25 1203.19,-333.25 1197.19,-327.25 1197.19,-321.25 1197.19,-321.25 1197.19,-309.25 1197.19,-309.25 1197.19,-303.25 1203.19,-297.25 1209.19,-297.25 1209.19,-297.25 1253.69,-297.25 1253.69,-297.25 1259.69,-297.25 1265.69,-303.25 1265.69,-309.25 1265.69,-309.25 1265.69,-321.25 1265.69,-321.25 1265.69,-327.25 1259.69,-333.25 1253.69,-333.25"/>
<text xml:space="preserve" text-anchor="middle" x="1231.44" y="-311.38" font-family="Helvetica,sans-Serif" font-size="10.00">JoinMeeting</text>
</g>
<!-- JOIN&#45;&gt;BROWSERPORT -->
<g id="edge16" class="edge">
<title>JOIN&#45;&gt;BROWSERPORT</title>
<path fill="none" stroke="#64748b" d="M1196.72,-312.19C1108.62,-306.55 878.5,-289.14 809.44,-257.5 797.56,-252.05 785.76,-244 775.76,-236.16"/>
<polygon fill="#64748b" stroke="#64748b" points="778.25,-233.68 768.3,-230.06 773.82,-239.1 778.25,-233.68"/>
</g>
<!-- COPY -->
<g id="node18" class="node">
<title>COPY</title>
<path fill="#dcfce7" stroke="#94a3b8" d="M1374.32,-333.25C1374.32,-333.25 1306.57,-333.25 1306.57,-333.25 1300.57,-333.25 1294.57,-327.25 1294.57,-321.25 1294.57,-321.25 1294.57,-309.25 1294.57,-309.25 1294.57,-303.25 1300.57,-297.25 1306.57,-297.25 1306.57,-297.25 1374.32,-297.25 1374.32,-297.25 1380.32,-297.25 1386.32,-303.25 1386.32,-309.25 1386.32,-309.25 1386.32,-321.25 1386.32,-321.25 1386.32,-327.25 1380.32,-333.25 1374.32,-333.25"/>
<text xml:space="preserve" text-anchor="middle" x="1340.44" y="-311.38" font-family="Helvetica,sans-Serif" font-size="10.00">CopyMeetingLink</text>
</g>
<!-- COPY&#45;&gt;CLIPPORT -->
<g id="edge17" class="edge">
<title>COPY&#45;&gt;CLIPPORT</title>
<path fill="none" stroke="#64748b" d="M1294.38,-300.69C1289.69,-299.46 1284.98,-298.29 1280.44,-297.25 1255.81,-291.59 1079.55,-267.75 1056.44,-257.5 1044.77,-252.32 1033.35,-244.35 1023.7,-236.51"/>
<polygon fill="#64748b" stroke="#64748b" points="1026.09,-233.94 1016.21,-230.11 1021.54,-239.26 1026.09,-233.94"/>
</g>
<!-- PROVIDER -->
<g id="node21" class="node">
<title>PROVIDER</title>
<path fill="#fae8ff" stroke="#94a3b8" d="M1583.69,-52C1583.69,-52 1521.19,-52 1521.19,-52 1515.19,-52 1509.19,-46 1509.19,-40 1509.19,-40 1509.19,-28 1509.19,-28 1509.19,-22 1515.19,-16 1521.19,-16 1521.19,-16 1583.69,-16 1583.69,-16 1589.69,-16 1595.69,-22 1595.69,-28 1595.69,-28 1595.69,-40 1595.69,-40 1595.69,-46 1589.69,-52 1583.69,-52"/>
<text xml:space="preserve" text-anchor="middle" x="1552.44" y="-30.12" font-family="Helvetica,sans-Serif" font-size="10.00">MeetingProvider</text>
</g>
<!-- REGISTRY&#45;&gt;PROVIDER -->
<g id="edge19" class="edge">
<title>REGISTRY&#45;&gt;PROVIDER</title>
<path fill="none" stroke="#64748b" d="M1552.44,-96.86C1552.44,-87.19 1552.44,-74.87 1552.44,-63.76"/>
<polygon fill="#64748b" stroke="#64748b" points="1555.94,-63.89 1552.44,-53.89 1548.94,-63.89 1555.94,-63.89"/>
</g>
<!-- ROOT -->
<g id="node24" class="node">
<title>ROOT</title>
<path fill="#ffedd5" stroke="#94a3b8" d="M851.57,-437.75C851.57,-437.75 809.32,-437.75 809.32,-437.75 803.32,-437.75 797.32,-431.75 797.32,-425.75 797.32,-425.75 797.32,-413.75 797.32,-413.75 797.32,-407.75 803.32,-401.75 809.32,-401.75 809.32,-401.75 851.57,-401.75 851.57,-401.75 857.57,-401.75 863.57,-407.75 863.57,-413.75 863.57,-413.75 863.57,-425.75 863.57,-425.75 863.57,-431.75 857.57,-437.75 851.57,-437.75"/>
<text xml:space="preserve" text-anchor="middle" x="830.44" y="-415.88" font-family="Helvetica,sans-Serif" font-size="10.00">createApp()</text>
</g>
<!-- ROOT&#45;&gt;CAL -->
<g id="edge24" class="edge">
<title>ROOT&#45;&gt;CAL</title>
<path fill="none" stroke="#64748b" d="M797.14,-403.85C758.67,-386.63 695,-358.13 650.78,-338.33"/>
<polygon fill="#64748b" stroke="#64748b" points="652.48,-335.26 641.92,-334.37 649.62,-341.65 652.48,-335.26"/>
<text xml:space="preserve" text-anchor="middle" x="754.06" y="-371.2" font-family="Helvetica,sans-Serif" font-size="9.00">wires</text>
</g>
<!-- ROOT&#45;&gt;HYBRID -->
<g id="edge25" class="edge">
<title>ROOT&#45;&gt;HYBRID</title>
<path fill="none" stroke="#64748b" d="M797.05,-419.5C716.36,-420.33 505.25,-416.64 340.44,-362 324.58,-356.74 308.39,-348.06 294.83,-339.66"/>
<polygon fill="#64748b" stroke="#64748b" points="297.04,-336.92 286.73,-334.47 293.26,-342.81 297.04,-336.92"/>
<text xml:space="preserve" text-anchor="middle" x="402.5" y="-371.2" font-family="Helvetica,sans-Serif" font-size="9.00">wires</text>
</g>
<!-- ROOT&#45;&gt;HANDLE -->
<g id="edge26" class="edge">
<title>ROOT&#45;&gt;HANDLE</title>
<path fill="none" stroke="#64748b" d="M863.83,-417.84C970.47,-414.56 1301.72,-401.36 1400.44,-362 1412.49,-357.2 1424.13,-349.16 1433.84,-341.16"/>
<polygon fill="#64748b" stroke="#64748b" points="1436.13,-343.8 1441.37,-334.59 1431.53,-338.52 1436.13,-343.8"/>
<text xml:space="preserve" text-anchor="middle" x="1386.6" y="-371.2" font-family="Helvetica,sans-Serif" font-size="9.00">wires</text>
</g>
<!-- ROOT&#45;&gt;REGISTRY -->
<g id="edge27" class="edge">
<title>ROOT&#45;&gt;REGISTRY</title>
<path fill="none" stroke="#64748b" d="M863.79,-418.5C995.18,-417.17 1472.13,-409.11 1518.44,-362 1576.08,-303.36 1566.71,-195.57 1558.18,-144.4"/>
<polygon fill="#64748b" stroke="#64748b" points="1561.66,-143.95 1556.45,-134.73 1554.77,-145.19 1561.66,-143.95"/>
<text xml:space="preserve" text-anchor="middle" x="1572.04" y="-266.7" font-family="Helvetica,sans-Serif" font-size="9.00">wires</text>
</g>
<!-- BG -->
<g id="node25" class="node">
<title>BG</title>
<path fill="#ffedd5" stroke="#94a3b8" d="M879.69,-533.5C879.69,-533.5 781.19,-533.5 781.19,-533.5 775.19,-533.5 769.19,-527.5 769.19,-521.5 769.19,-521.5 769.19,-509.5 769.19,-509.5 769.19,-503.5 775.19,-497.5 781.19,-497.5 781.19,-497.5 879.69,-497.5 879.69,-497.5 885.69,-497.5 891.69,-503.5 891.69,-509.5 891.69,-509.5 891.69,-521.5 891.69,-521.5 891.69,-527.5 885.69,-533.5 879.69,-533.5"/>
<text xml:space="preserve" text-anchor="middle" x="830.44" y="-511.62" font-family="Helvetica,sans-Serif" font-size="10.00">extension/background.ts</text>
</g>
<!-- BG&#45;&gt;ROOT -->
<g id="edge23" class="edge">
<title>BG&#45;&gt;ROOT</title>
<path fill="none" stroke="#64748b" d="M830.44,-497.3C830.44,-483.91 830.44,-465.02 830.44,-449.36"/>
<polygon fill="#64748b" stroke="#64748b" points="833.94,-449.67 830.44,-439.67 826.94,-449.67 833.94,-449.67"/>
</g>
</g>
</svg>
